 http://www.imdb.com/title/tt1433915/
 
http://www.moviemeter.nl/film/49330

België / Nederland
Animatie
80 minuten

Geregisseerd door Wim Bien en Mark Mertens.
Met de stemmen van Staf Coppens, Evelien Verhegge en Lucas van den Eijnde.

Dark City, Texas. Een vreselijke bandiet, genaamd Jim Parasijt runt een illegale whiskeystokerij. Parasijt wil de grootste worden en heeft daarom een magisch poeder ontwikkeld dat iedereen kan verkleinen. De lokale Texas Rangers, onder leiding van de dappere Ranger Tom, proberen Parasijt te stoppen, maar worden in de val gelokt. Tom en zijn Rangers worden verkleind en in whiskeyflessen gestopt. In een ontsnappingspoging komt de fles waarin Ranger Tom zit in een krat terecht dat wordt verscheept naar België en komt zo in handen van Lambik, die een krat whiskey aangesmeerd krijgt van Theofiel Boomerang. Suske, Wiske, Tante Sidonia, Lambik, Jerom en professor Barabas krijgen het verhaal te horen en besluiten Ranger Tom te helpen. Barabas zal proberen Ranger Tom weer te vergroten en de rest reist af naar Dark City om daar Jim Parasijt tegen te houden.

Cover bijgesloten.

Info:

General
Complete name                    : Suske en Wiske-De Texas Rakkers-DVDRip-2009.avi
Format                           : AVI
Format/Info                      : Audio Video Interleave
File size                        : 1.36 GiB
Duration                         : 1h 28mn
Overall bit rate                 : 2 200 Kbps
Writing application              : VirtualDubMod 1.5.4.1 (build 2178/release)
Writing library                  : VirtualDubMod build 2178/release

Video
Format                           : MPEG-4 Visual
Format profile                   : Simple@L3
Format settings, BVOP            : No
Format settings, QPel            : No
Format settings, GMC             : No warppoints
Format settings, Matrix          : Default
Codec ID                         : XVID
Codec ID/Hint                    : XviD
Duration                         : 1h 28mn
Bit rate                         : 1 743 Kbps
Width                            : 704 pixels
Height                           : 400 pixels
Display aspect ratio             : 16/9
Frame rate                       : 25.000 fps
Resolution                       : 24 bits
Colorimetry                      : 4:2:0
Scan type                        : Progressive
Bits/(Pixel*Frame)               : 0.248
Stream size                      : 1.08 GiB (79%)
Writing library                  : XviD 1.1.2 (UTC 2006-11-01)

Audio
Format                           : AC-3
Format/Info                      : Audio Coding 3
Codec ID                         : 2000
Duration                         : 1h 28mn
Bit rate mode                    : Constant
Bit rate                         : 448 Kbps
Channel(s)                       : 6 channels
Channel positions                : Front: L C R, Surround: L R, LFE
Sampling rate                    : 48.0 KHz
Stream size                      : 283 MiB (20%)
Alignment                        : Split accross interleaves
Interleave, duration             : 40 ms (1.00 video frame)
Interleave, preload duration     : 500 ms

Veel plezier....